<?xml version="1.0" encoding="UTF-8" standalone="no"?>
<!-- Created with Inkscape (http://www.inkscape.org/) -->
<svg
   xmlns:dc="http://purl.org/dc/elements/1.1/"
   xmlns:cc="http://creativecommons.org/ns#"
   xmlns:rdf="http://www.w3.org/1999/02/22-rdf-syntax-ns#"
   xmlns:svg="http://www.w3.org/2000/svg"
   xmlns="http://www.w3.org/2000/svg"
   xmlns:sodipodi="http://sodipodi.sourceforge.net/DTD/sodipodi-0.dtd"
   xmlns:inkscape="http://www.inkscape.org/namespaces/inkscape"
   width="204"
   height="204"
   id="svg3337"
   sodipodi:version="0.32"
   inkscape:version="0.46"
   version="1.0"
   sodipodi:docname="ice_logo.svg"
   inkscape:output_extension="org.inkscape.output.svg.inkscape">
  <defs
     id="defs3339">
    <inkscape:perspective
       sodipodi:type="inkscape:persp3d"
       inkscape:vp_x="0 : 526.18109 : 1"
       inkscape:vp_y="0 : 1000 : 0"
       inkscape:vp_z="744.09448 : 526.18109 : 1"
       inkscape:persp3d-origin="372.04724 : 350.78739 : 1"
       id="perspective3345" />
    <inkscape:perspective
       id="perspective3391"
       inkscape:persp3d-origin="372.04724 : 350.78739 : 1"
       inkscape:vp_z="744.09448 : 526.18109 : 1"
       inkscape:vp_y="0 : 1000 : 0"
       inkscape:vp_x="0 : 526.18109 : 1"
       sodipodi:type="inkscape:persp3d" />
  </defs>
  <sodipodi:namedview
     id="base"
     pagecolor="#ffffff"
     bordercolor="#666666"
     borderopacity="1.0"
     gridtolerance="10000"
     guidetolerance="10"
     objecttolerance="10"
     inkscape:pageopacity="0.0"
     inkscape:pageshadow="2"
     inkscape:zoom="1.4744847"
     inkscape:cx="58.44176"
     inkscape:cy="134.11761"
     inkscape:document-units="px"
     inkscape:current-layer="layer1"
     showgrid="false"
     inkscape:showpageshadow="false"
     showborder="false"
     inkscape:window-width="861"
     inkscape:window-height="719"
     inkscape:window-x="50"
     inkscape:window-y="25" />
  <metadata
     id="metadata3342">
    <rdf:RDF>
      <cc:Work
         rdf:about="">
        <dc:format>image/svg+xml</dc:format>
        <dc:type
           rdf:resource="http://purl.org/dc/dcmitype/StillImage" />
        <dc:title>IntercontinentalExchange logo</dc:title>
        <dc:date>6 January 2010</dc:date>
        <dc:creator>
          <cc:Agent>
            <dc:title>Hydrargyrum for Wikipedia</dc:title>
          </cc:Agent>
        </dc:creator>
        <dc:source>self-made</dc:source>
        <dc:description>Logo for IntercontinentalExchange, Inc. of Atlanta, Georgia, U.S.A.  Recreated from small bitmap reference sample.</dc:description>
        <dc:contributor>
          <cc:Agent>
            <dc:title>Hydrargyrum</dc:title>
          </cc:Agent>
        </dc:contributor>
      </cc:Work>
    </rdf:RDF>
  </metadata>
  <g
     inkscape:label="Layer 1"
     inkscape:groupmode="layer"
     id="layer1"
     transform="translate(-273,-432.36218)">
    <g
       id="g3925">
      <path
         id="path3397"
         d="M 273,532.36218 L 273,432.36218 L 373,432.36218 L 473,432.36218 L 473,494.36218 L 473,556.36218 L 467,556.36218 L 461,556.36218 L 461,500.36218 L 461,444.36218 L 373,444.36218 L 285,444.36218 L 285,532.36218 L 285,620.36218 L 305,620.36218 L 325,620.36218 L 325,626.36218 L 325,632.36218 L 299,632.36218 L 273,632.36218 L 273,532.36218 z"
         style="fill:#9ad0e6;fill-opacity:1" />
      <path
         id="path3919"
         d="M 343.95898,573.22839 L 353.66211,573.22839 L 353.66211,632.28308 L 343.95898,632.28308 L 343.95898,573.22839"
         style="font-size:108px;font-style:normal;font-variant:normal;font-weight:normal;font-stretch:normal;text-align:start;line-height:125%;writing-mode:lr-tb;text-anchor:start;fill:#000000;fill-opacity:1;stroke:none;stroke-width:1px;stroke-linecap:butt;stroke-linejoin:miter;stroke-opacity:1;font-family:Sans;-inkscape-font-specification:Sans" />
      <path
         id="path3917"
         d="M 412.91602,574.98816 L 412.91602,584.05847 C 410.17378,582.5468 407.41402,581.4218 404.63672,580.68347 C 401.89449,579.91009 399.11715,579.52337 396.30469,579.52332 C 390.01169,579.52337 385.12498,581.52727 381.64453,585.53503 C 378.16404,589.50773 376.42381,595.09757 376.42383,602.30457 C 376.42381,609.51162 378.16404,615.11904 381.64453,619.12683 C 385.12498,623.0995 390.01169,625.08582 396.30469,625.08582 C 399.11715,625.08582 401.89449,624.71668 404.63672,623.97839 C 407.41402,623.20496 410.17378,622.06239 412.91602,620.55066 L 412.91602,629.5155 C 410.20893,630.78113 407.39644,631.73035 404.47852,632.36316 C 401.59566,632.99597 398.51949,633.31238 395.25,633.31238 C 386.35544,633.31238 379.28904,630.51746 374.05078,624.92761 C 368.81249,619.33778 366.19335,611.79677 366.19336,602.30457 C 366.19335,592.67179 368.83007,585.09563 374.10352,579.57605 C 379.41209,574.05658 386.67185,571.29681 395.88281,571.29675 C 398.87106,571.29681 401.78902,571.61322 404.63672,572.24597 C 407.48433,572.84369 410.24409,573.75775 412.91602,574.98816"
         style="font-size:108px;font-style:normal;font-variant:normal;font-weight:normal;font-stretch:normal;text-align:start;line-height:125%;writing-mode:lr-tb;text-anchor:start;fill:#000000;fill-opacity:1;stroke:none;stroke-width:1px;stroke-linecap:butt;stroke-linejoin:miter;stroke-opacity:1;font-family:Sans;-inkscape-font-specification:Sans" />
      <g
         id="g3921">
        <path
           style="font-size:108px;font-style:normal;font-variant:normal;font-weight:normal;font-stretch:normal;text-align:start;line-height:125%;writing-mode:lr-tb;text-anchor:start;fill:#000000;fill-opacity:1;stroke:none;stroke-width:1px;stroke-linecap:butt;stroke-linejoin:miter;stroke-opacity:1;font-family:Sans;-inkscape-font-specification:Sans"
           d="M 474.41602,599.82605 L 474.41602,604.57214 L 429.80273,604.57214 C 430.22459,611.25185 432.2285,616.3495 435.81445,619.86511 C 439.43552,623.34559 444.46286,625.08582 450.89648,625.08582 C 454.62301,625.08582 458.22652,624.62879 461.70703,623.71472 C 465.2226,622.80067 468.70307,621.42958 472.14844,619.60144 L 472.14844,628.77722 C 468.66791,630.25379 465.09956,631.37878 461.44336,632.15222 C 457.78707,632.92566 454.07808,633.31238 450.31641,633.31238 C 440.8945,633.31238 433.42381,630.57019 427.9043,625.08582 C 422.41991,619.60145 419.67773,612.18349 419.67773,602.83191 C 419.67773,593.16398 422.27929,585.49992 427.48242,579.83972 C 432.72068,574.14447 439.76951,571.29681 448.62891,571.29675 C 456.57418,571.29681 462.84956,573.86322 467.45508,578.99597 C 472.09564,584.09368 474.41595,591.03703 474.41602,599.82605"
           id="path3915" />
        <path
           style="font-size:108px;font-style:normal;font-variant:normal;font-weight:normal;font-stretch:normal;text-align:start;line-height:125%;writing-mode:lr-tb;text-anchor:start;fill:#ffffff;fill-opacity:1;stroke:none;stroke-width:1px;stroke-linecap:butt;stroke-linejoin:miter;stroke-opacity:1;font-family:Sans;-inkscape-font-specification:Sans"
           d="M 464.71289,596.97839 C 464.64253,591.66984 463.14839,587.43352 460.23047,584.26941 C 457.34761,581.1054 453.51559,579.52337 448.73438,579.52332 C 443.32028,579.52337 438.97849,581.05266 435.70898,584.11121 C 432.47459,587.16984 430.61131,591.47648 430.11914,597.03113 L 464.71289,596.97839"
           id="text3908" />
      </g>
    </g>
  </g>
</svg>
